<svg width="561" height="284" viewBox="0 0 561 284" fill="none" xmlns="http://www.w3.org/2000/svg">
<rect y="9" width="213" height="56" rx="28" fill="#12A0DD"/>
<rect x="82" y="64" width="361" height="56" rx="28" fill="#12A0DD"/>
<rect x="39" y="118" width="312" height="56" rx="28" fill="#12A0DD"/>
<rect x="309" y="118" width="252" height="56" rx="28" fill="#067EB2"/>
<rect x="124" y="169" width="249" height="56" rx="28" fill="#12A0DD"/>
<circle cx="271" cy="29" r="29" fill="#12A0DD"/>
<circle cx="406" cy="199" r="29" fill="#12A0DD"/>
<path d="M351.5 32.5V50M360.5 41H343.5" stroke="white" stroke-width="4"/>
<path d="M28 170V187.5M37 178.5H20" stroke="white" stroke-width="4"/>
<path d="M352 266V283.5M361 274.5H344" stroke="white" stroke-width="4"/>
<path d="M355.678 226.137C355.507 232.466 354.437 238.739 352.501 244.771C352.459 244.911 352.411 245.049 352.365 245.189H340.513C340.525 245.064 340.538 244.924 340.55 244.771C341.341 235.763 336.826 181.592 331.378 172.216C331.856 172.977 356.597 197.515 355.678 226.137Z" fill="#F0F0F0"/>
<path d="M354.447 244.776C354.347 244.914 354.243 245.053 354.137 245.189H345.162C345.23 245.071 345.309 244.933 345.4 244.776C346.883 242.177 351.271 234.407 355.344 226.352C359.719 217.696 363.737 208.711 363.399 205.459C363.504 206.192 366.533 228.55 354.447 244.776Z" fill="#F0F0F0"/>
<path d="M314.351 206.27H93V36H314.351V206.27Z" fill="white"/>
<path d="M314.351 206.27H93V36H314.351V206.27ZM96.2704 203.002H311.081V39.268H96.2704V203.002Z" fill="#E5E5E5"/>
<path d="M151.281 164.919H134.449C133.993 164.918 133.556 164.736 133.234 164.413C132.912 164.089 132.73 163.65 132.73 163.192V139.889C132.73 139.431 132.912 138.992 133.234 138.668C133.556 138.345 133.993 138.163 134.449 138.162H151.281C151.737 138.163 152.174 138.345 152.496 138.668C152.818 138.992 152.999 139.431 153 139.889V163.192C152.999 163.65 152.818 164.089 152.496 164.413C152.174 164.736 151.737 164.918 151.281 164.919Z" fill="#E6E6E6"/>
<path d="M181.281 164.919H164.449C163.993 164.918 163.556 164.737 163.234 164.415C162.912 164.093 162.73 163.656 162.73 163.2V117.989C162.73 117.534 162.912 117.097 163.234 116.774C163.556 116.452 163.993 116.271 164.449 116.27H181.281C181.737 116.271 182.174 116.452 182.496 116.774C182.818 117.097 182.999 117.534 183 117.989V163.2C182.999 163.656 182.818 164.093 182.496 164.415C182.174 164.737 181.737 164.918 181.281 164.919Z" fill="#E6E6E6"/>
<path d="M212.092 164.919H195.26C194.804 164.918 194.367 164.736 194.045 164.413C193.722 164.089 193.541 163.65 193.541 163.192V139.889C193.541 139.431 193.722 138.992 194.045 138.668C194.367 138.345 194.804 138.163 195.26 138.162H212.092C212.547 138.163 212.984 138.345 213.307 138.668C213.629 138.992 213.81 139.431 213.811 139.889V163.192C213.81 163.65 213.629 164.089 213.307 164.413C212.984 164.736 212.547 164.918 212.092 164.919Z" fill="#E6E6E6"/>
<path d="M242.902 164.919H226.071C225.625 164.928 225.194 164.76 224.872 164.451C224.55 164.142 224.362 163.718 224.351 163.271V109C224.362 108.552 224.55 108.128 224.872 107.819C225.194 107.51 225.625 107.342 226.071 107.352H242.902C243.348 107.342 243.779 107.51 244.101 107.819C244.423 108.128 244.611 108.552 244.622 109V163.271C244.611 163.718 244.423 164.142 244.101 164.451C243.779 164.76 243.348 164.928 242.902 164.919Z" fill="#E6E6E6"/>
<path d="M272.902 164.919H256.071C255.615 164.918 255.178 164.737 254.856 164.415C254.533 164.093 254.352 163.656 254.351 163.2V93.665C254.352 93.2092 254.533 92.7723 254.856 92.45C255.178 92.1277 255.615 91.9465 256.071 91.946H272.902C273.358 91.9465 273.795 92.1277 274.117 92.45C274.44 92.7723 274.621 93.2092 274.622 93.665V163.2C274.621 163.656 274.44 164.093 274.117 164.415C273.795 164.737 273.358 164.918 272.902 164.919Z" fill="#F2F2F2"/>
<path d="M142.459 131.676C144.251 131.676 145.703 130.042 145.703 128.027C145.703 126.012 144.251 124.378 142.459 124.378C140.668 124.378 139.216 126.012 139.216 128.027C139.216 130.042 140.668 131.676 142.459 131.676Z" fill="#3F3D56"/>
<path d="M172.865 108.973C174.88 108.973 176.513 107.339 176.513 105.324C176.513 103.309 174.88 101.676 172.865 101.676C170.85 101.676 169.216 103.309 169.216 105.324C169.216 107.339 170.85 108.973 172.865 108.973Z" fill="#3F3D56"/>
<path d="M203.676 131.676C205.691 131.676 207.324 130.042 207.324 128.027C207.324 126.012 205.691 124.378 203.676 124.378C201.661 124.378 200.027 126.012 200.027 128.027C200.027 130.042 201.661 131.676 203.676 131.676Z" fill="#3F3D56"/>
<path d="M234.081 97.6216C235.872 97.6216 237.324 96.1696 237.324 94.3784C237.324 92.5872 235.872 91.1351 234.081 91.1351C232.29 91.1351 230.838 92.5872 230.838 94.3784C230.838 96.1696 232.29 97.6216 234.081 97.6216Z" fill="#3F3D56"/>
<path d="M264.486 85.4595C266.502 85.4595 268.135 83.8259 268.135 81.8108C268.135 79.7957 266.502 78.1622 264.486 78.1622C262.471 78.1622 260.838 79.7957 260.838 81.8108C260.838 83.8259 262.471 85.4595 264.486 85.4595Z" fill="#3F3D56"/>
<path d="M203.813 128.432L173.272 105.507L143.149 128.119L142.459 127.197L173.272 104.067L203.668 126.884L233.873 93.7575L233.994 93.7083L264.462 81.4054L264.892 82.4744L234.545 94.728L203.813 128.432Z" fill="#3F3D56"/>
<path d="M307.053 240.324L302.109 240.324L299.757 220.054L307.054 220.054L307.053 240.324Z" fill="#FFB6B6"/>
<path d="M308.675 245.189L291.649 245.189V244.984C291.649 243.318 292.347 241.721 293.59 240.543C294.833 239.365 296.518 238.703 298.276 238.703H298.276L308.676 238.703L308.675 245.189Z" fill="#2F2E41"/>
<path d="M289.216 155.189L292.093 202.447L301.752 235.712L309.235 236.27L305.478 195.73L307.125 168.807C307.125 168.807 314.936 162.804 310.617 155.578L289.216 155.189Z" fill="#2F2E41"/>
<path d="M311.107 240.324L305.613 240.324L303 220.054L311.108 220.054L311.107 240.324Z" fill="#FFB6B6"/>
<path d="M311.919 245.189L295.703 245.189V244.984C295.703 243.318 296.368 241.721 297.551 240.543C298.735 239.365 300.34 238.703 302.014 238.703H302.015L311.919 238.703L311.919 245.189Z" fill="#2F2E41"/>
<path d="M292.459 155.189L295.336 202.447L304.995 235.712L312.478 236.27L308.721 195.73L310.368 168.807C310.368 168.807 318.179 162.804 313.86 155.578L292.459 155.189Z" fill="#2F2E41"/>
<path d="M308.474 162.486C299.61 162.486 289.178 157.044 288.574 156.724L288.405 156.635L308.748 104.49L318.823 99.7073C319.599 99.3391 320.458 99.1856 321.313 99.2626C322.167 99.3396 322.986 99.6444 323.684 100.145C324.382 100.647 324.934 101.326 325.284 102.113C325.634 102.9 325.768 103.767 325.673 104.624L321.675 140.662L317.502 159.327L317.457 159.37C315.154 161.657 311.933 162.486 308.474 162.486Z" fill="#3F3D56"/>
<path d="M275.838 128.245C276.367 127.931 276.964 127.73 277.586 127.655C278.208 127.58 278.84 127.633 279.437 127.811C280.035 127.989 280.583 128.287 281.044 128.685C281.505 129.083 281.867 129.57 282.104 130.112L297.324 129.335L293.331 135.73L279.49 135.487C278.488 135.8 277.399 135.759 276.428 135.371C275.458 134.983 274.673 134.275 274.223 133.383C273.772 132.49 273.688 131.474 273.986 130.527C274.283 129.58 274.942 128.768 275.838 128.245Z" fill="#FFB6B6"/>
<path d="M305.789 138.973L290.838 138.585L291.031 128.538L298.1 126.252L309.697 109.729C310.277 108.902 311.015 108.201 311.867 107.668C312.719 107.136 313.667 106.782 314.656 106.628C315.645 106.474 316.654 106.523 317.623 106.773C318.593 107.022 319.504 107.466 320.301 108.079C321.099 108.692 321.768 109.461 322.268 110.341C322.768 111.221 323.089 112.194 323.213 113.202C323.337 114.21 323.26 115.234 322.987 116.211C322.715 117.189 322.252 118.101 321.627 118.894L305.789 138.973Z" fill="#3F3D56"/>
<path d="M314.757 98.4324C320.354 98.4324 324.892 93.8948 324.892 88.2973C324.892 82.6998 320.354 78.1622 314.757 78.1622C309.159 78.1622 304.622 82.6998 304.622 88.2973C304.622 93.8948 309.159 98.4324 314.757 98.4324Z" fill="#FFB6B6"/>
<path d="M301.592 79.4161C302.614 78.3366 303.942 77.6187 305.385 77.3656C306.791 77.0538 308.334 76.9572 309.459 76.0483C310.738 74.9989 311.3 73.0054 312.869 72.562C313.551 72.4207 314.258 72.4785 314.91 72.7288C317.416 73.5077 319.641 75.0359 321.302 77.1197C321.694 77.7168 322.193 78.2311 322.773 78.6346C323.119 78.7858 323.458 78.9558 323.787 79.1439C324.148 79.4375 324.432 79.8193 324.614 80.2548C325.744 82.6067 326.005 85.3024 325.347 87.8378C324.955 89.3351 324.247 90.7226 323.83 92.2287C323.412 93.7347 321.48 96.5998 321.029 95.8884C320.577 95.1771 319.997 94.5141 319.75 93.693C319.268 92.0779 319.703 90.4525 318.477 89.3307C317.718 88.6369 316.346 88.1715 315.83 89.0672C315.626 89.4141 315.639 89.8532 315.464 90.2133C315.119 90.9158 314.122 91.0563 313.461 90.6523C312.824 90.1995 312.377 89.5158 312.208 88.7379C311.215 85.2779 309.523 83.1001 305.931 84.5798C304.592 85.133 303.016 85.5062 301.729 84.5578C300.033 83.3108 300.378 80.8388 301.592 79.4161Z" fill="#2F2E41"/>
<path d="M279.389 170.595H262.557C262.101 170.594 261.664 170.413 261.342 170.091C261.02 169.768 260.838 169.331 260.838 168.876V99.3407C260.838 98.8849 261.02 98.4479 261.342 98.1257C261.664 97.8034 262.101 97.6221 262.557 97.6216H279.389C279.845 97.6221 280.282 97.8034 280.604 98.1257C280.926 98.4479 281.108 98.8849 281.108 99.3407V168.876C281.108 169.331 280.926 169.768 280.604 170.091C280.282 170.413 279.845 170.594 279.389 170.595Z" fill="#0098DA"/>
<path d="M275.027 133.983C275.556 133.638 276.153 133.416 276.775 133.334C277.397 133.251 278.029 133.31 278.626 133.506C279.224 133.701 279.772 134.03 280.233 134.467C280.694 134.904 281.056 135.44 281.293 136.037L296.514 135.182L292.52 142.216L278.679 141.95C277.678 142.294 276.588 142.248 275.617 141.821C274.647 141.394 273.862 140.616 273.412 139.634C272.962 138.652 272.877 137.535 273.175 136.493C273.473 135.452 274.132 134.558 275.027 133.983H275.027Z" fill="#FFB6B6"/>
<path d="M305.352 144.649L290.027 144.261L290.225 134.214L297.471 131.928L309.357 115.405C309.953 114.577 310.709 113.877 311.582 113.344C312.455 112.811 313.427 112.458 314.441 112.304C315.454 112.15 316.488 112.199 317.482 112.448C318.476 112.697 319.409 113.142 320.227 113.754C321.045 114.367 321.73 115.136 322.243 116.016C322.755 116.896 323.085 117.869 323.212 118.878C323.338 119.886 323.26 120.909 322.98 121.887C322.701 122.865 322.227 123.777 321.586 124.57L305.352 144.649Z" fill="#3F3D56"/>
</svg>
